<svg xmlns="http://www.w3.org/2000/svg" width="1379" height="761" viewBox="0 0 1379 761">
<g>
<path d="M 265.34 514.93 C255.78,516.88 239.48,517.52 230.50,516.29 C216.36,514.36 198.13,507.46 185.50,499.25 C178.05,494.41 165.49,481.95 160.52,474.47 C142.47,447.26 138.11,411.61 148.97,380.00 L 150.86 374.50 L 150.94 378.50 C151.05,383.63 152.74,386.76 156.50,388.84 C158.15,389.75 159.86,391.06 160.30,391.75 C161.69,393.92 163.51,393.12 164.87,389.75 C165.60,387.94 166.40,387.06 166.67,387.76 C166.95,388.45 167.58,388.76 168.09,388.45 C168.59,388.14 169.00,388.39 169.00,389.00 C169.00,389.61 169.46,389.84 170.02,389.49 C170.58,389.14 170.78,388.45 170.46,387.94 C170.15,387.44 170.63,387.31 171.53,387.65 C172.43,388.00 172.75,388.55 172.24,388.89 C171.72,389.23 171.29,390.17 171.28,391.00 C171.27,391.83 170.53,395.97 169.63,400.21 C166.08,417.01 168.18,434.61 175.55,449.71 C188.83,476.92 221.04,494.84 249.79,491.02 C254.53,490.39 259.00,489.54 259.71,489.14 C260.44,488.73 257.51,487.90 253.11,487.26 C223.49,482.94 194.61,458.80 182.91,428.56 C179.49,419.73 177.30,409.20 176.41,397.25 L 175.71 388.00 L 178.36 388.00 C179.81,388.00 181.00,387.55 181.00,387.00 C181.00,385.49 183.59,385.80 184.99,387.49 C186.08,388.81 186.53,388.80 188.87,387.42 C190.91,386.21 192.12,386.10 194.26,386.91 C195.77,387.48 196.96,388.30 196.89,388.73 C196.82,389.15 196.82,391.13 196.88,393.12 C197.01,396.97 197.97,397.52 206.50,398.60 C208.15,398.80 210.56,399.22 211.85,399.53 C213.14,399.84 214.80,399.58 215.54,398.97 C216.61,398.08 217.47,398.95 219.69,403.17 C221.23,406.10 222.67,408.95 222.89,409.50 C224.43,413.29 243.99,431.09 252.88,436.78 C261.65,442.40 270.85,444.94 282.51,444.97 C291.28,445.00 292.67,445.24 293.72,446.92 C295.03,449.02 298.12,448.77 300.09,446.39 C300.73,445.63 302.88,444.99 304.87,444.98 C306.87,444.96 310.30,444.48 312.50,443.90 C314.70,443.32 318.96,442.46 321.96,441.98 C328.21,440.99 332.00,439.25 332.00,437.35 C332.00,436.63 333.24,435.28 334.75,434.34 C338.82,431.81 340.95,428.85 340.98,425.69 C340.99,424.08 341.43,423.14 342.00,423.50 C342.55,423.84 343.01,423.30 343.03,422.31 C343.06,420.60 343.12,420.60 344.08,422.26 C346.44,426.31 340.87,450.37 334.76,462.48 C320.99,489.79 295.97,508.69 265.34,514.93 ZM 512.97 472.51 C481.66,479.09 450.55,470.18 428.64,448.34 C411.54,431.29 403.28,413.08 401.44,388.38 C400.97,382.07 401.11,379.05 401.88,378.57 C402.50,378.19 403.07,378.47 403.15,379.19 C403.49,382.09 403.64,382.59 404.88,384.84 C405.58,386.12 406.40,386.93 406.70,386.63 C407.00,386.34 407.92,386.78 408.76,387.62 C409.89,388.75 410.48,388.84 411.02,387.97 C411.49,387.22 411.97,387.15 412.37,387.79 C412.71,388.34 412.32,389.05 411.49,389.36 C410.67,389.68 410.00,390.81 410.00,391.89 C410.00,395.72 411.14,397.00 414.55,397.00 C416.38,397.00 418.16,397.45 418.50,398.00 C418.84,398.55 420.25,399.00 421.63,399.00 C424.40,399.00 427.00,401.07 427.00,403.27 C427.00,405.62 430.36,407.98 432.79,407.35 C434.00,407.03 435.00,406.37 435.00,405.88 C435.00,405.40 435.56,405.00 436.25,405.00 C436.94,405.01 438.34,407.06 439.37,409.56 C447.86,430.19 474.73,446.47 497.40,444.72 C504.65,444.15 516.38,440.48 522.56,436.83 L 526.00 434.80 L 526.03 419.15 C526.06,405.34 526.29,403.24 527.94,401.25 C530.02,398.76 531.99,398.39 533.78,400.18 C534.68,401.08 535.39,400.96 536.81,399.68 C538.15,398.46 540.49,398.00 545.33,398.00 C549.00,398.00 552.00,397.58 552.00,397.07 C552.00,396.56 552.76,395.38 553.69,394.45 C555.29,392.86 555.43,392.87 556.12,394.63 C556.53,395.66 556.89,408.10 556.93,422.27 L 557.00 448.04 L 552.81 452.59 C545.27,460.77 528.20,469.30 512.97,472.51 ZM 730.18 472.46 C720.16,474.57 706.27,474.35 697.08,471.95 C684.51,468.65 675.52,463.55 666.38,454.52 C653.31,441.60 648.05,428.10 648.02,407.39 C648.00,397.16 649.10,388.72 651.10,383.82 L 652.18 381.14 L 655.17 382.96 C659.73,385.73 661.20,388.34 660.00,391.51 C659.44,392.97 659.24,394.58 659.55,395.08 C660.13,396.03 658.81,396.36 655.75,396.05 C653.96,395.87 653.46,397.66 654.77,399.58 C655.69,400.93 661.85,404.00 663.65,404.00 C664.46,404.00 665.00,402.88 665.00,401.20 C665.00,398.88 665.64,398.16 668.75,397.00 C673.69,395.14 674.08,395.13 677.00,396.75 C679.35,398.04 679.48,398.55 679.17,404.98 C678.03,428.86 694.75,446.26 717.42,444.78 C733.73,443.71 745.83,432.10 749.10,414.40 C750.10,409.03 749.90,404.20 748.33,395.61 C747.78,392.62 747.82,392.58 749.35,394.50 C750.22,395.60 750.95,396.15 750.97,395.71 C750.99,395.28 751.92,395.42 753.04,396.02 C754.59,396.85 755.81,396.74 758.19,395.55 C759.90,394.70 762.14,394.00 763.15,394.00 C764.17,394.00 765.00,393.58 765.00,393.07 C765.00,392.09 768.24,390.76 771.26,390.49 C772.23,390.40 774.13,389.29 775.48,388.02 C778.32,385.35 778.37,385.42 779.95,394.43 C782.55,409.17 780.34,425.22 773.82,438.87 C765.84,455.60 749.09,468.49 730.18,472.46 ZM 1161.70 525.04 C1158.01,527.29 1151.89,527.53 1147.45,525.59 C1143.85,524.02 1139.25,518.85 1138.38,515.39 C1137.35,511.26 1138.64,507.50 1149.51,482.97 C1155.28,469.96 1160.00,458.75 1160.00,458.05 C1160.00,457.36 1158.43,453.80 1156.50,450.14 C1154.58,446.49 1148.97,435.32 1144.03,425.32 C1143.37,423.98 1142.75,422.73 1142.18,421.57 C1137.55,412.23 1135.82,408.74 1136.73,407.80 C1137.27,407.24 1138.75,407.59 1141.12,408.15 C1141.61,408.27 1142.14,408.39 1142.71,408.52 C1144.24,408.86 1145.25,408.40 1146.00,407.01 C1146.59,405.90 1147.77,405.00 1148.63,405.00 C1151.10,405.00 1157.24,401.91 1160.24,399.16 C1161.75,397.78 1163.19,396.86 1163.45,397.12 C1163.71,397.38 1165.94,401.84 1168.41,407.03 C1172.10,414.79 1172.64,416.62 1171.45,417.29 C1170.65,417.73 1170.00,418.98 1170.00,420.05 C1170.00,421.60 1170.70,422.00 1173.37,422.00 L 1176.75 422.00 L 1185.12 403.54 C1194.13,383.67 1194.48,383.28 1199.43,387.94 C1201.39,389.77 1201.83,391.03 1201.54,393.94 C1201.26,396.75 1201.63,397.91 1203.09,398.82 C1204.59,399.76 1205.00,399.75 1205.02,398.76 C1205.03,397.91 1205.35,397.99 1206.00,399.00 C1206.53,399.83 1207.01,400.05 1207.05,399.50 C1207.10,398.95 1207.53,399.40 1208.00,400.50 C1208.72,402.18 1208.87,402.23 1208.93,400.77 C1209.00,399.08 1211.24,398.08 1215.75,397.74 C1216.99,397.65 1218.00,396.97 1218.00,396.23 C1218.00,395.49 1218.39,395.12 1218.86,395.41 C1219.33,395.71 1219.60,394.83 1219.45,393.47 C1219.30,392.11 1219.65,391.00 1220.23,391.00 C1220.81,391.00 1221.85,390.21 1222.56,389.25 C1225.72,384.93 1224.38,389.55 1218.86,402.00 C1212.20,417.02 1211.22,418.55 1210.35,415.23 C1210.03,414.00 1209.14,413.00 1208.38,413.00 C1206.24,413.00 1206.74,414.60 1209.43,416.36 L 1211.86 417.96 L 1208.04 426.73 C1205.93,431.55 1200.73,443.38 1196.49,453.00 C1192.24,462.62 1184.07,481.30 1178.33,494.50 C1172.59,507.70 1167.22,519.53 1166.39,520.80 C1165.57,522.06 1163.45,523.97 1161.70,525.04 ZM 999.08 471.53 C991.32,473.52 972.99,474.28 964.54,472.95 C945.75,470.01 927.39,459.90 923.35,450.28 C921.54,445.98 921.64,444.37 924.00,439.50 C926.44,434.46 932.07,431.00 937.82,431.00 C943.16,431.00 945.72,432.06 952.14,436.93 C959.87,442.79 968.40,445.44 979.50,445.44 C986.55,445.44 989.51,444.98 993.18,443.31 C1000.95,439.76 1003.09,432.17 997.70,427.24 C993.81,423.69 989.42,422.08 975.31,419.02 C959.18,415.52 952.13,413.16 954.13,411.92 C955.22,411.24 955.24,410.84 954.22,409.82 C953.21,408.81 952.55,408.80 950.96,409.79 C949.31,410.82 948.29,410.68 944.85,408.92 C940.94,406.93 930.98,398.43 931.02,397.11 C931.08,394.58 932.87,393.99 937.58,394.95 C941.72,395.80 947.88,396.51 955.00,396.97 C956.18,397.04 956.10,397.37 954.62,398.48 C952.45,400.13 953.12,403.27 955.46,402.38 C956.31,402.05 957.00,402.28 957.00,402.89 C957.00,403.50 957.65,404.00 958.44,404.00 C960.24,404.00 963.13,400.02 962.30,398.68 C961.97,398.14 962.13,397.96 962.66,398.29 C963.79,398.99 969.25,394.59 968.36,393.70 C968.03,393.37 966.47,393.36 964.88,393.67 C962.52,394.15 962.00,393.91 962.02,392.38 C962.02,392.27 962.02,392.17 962.02,392.07 C962.02,391.09 962.02,390.33 962.39,389.83 C963.61,388.12 968.97,389.38 992.55,394.95 L 994.73 395.46 C1019.14,401.22 1030.60,412.11 1031.79,430.68 C1033.07,450.56 1020.72,465.98 999.08,471.53 ZM 872.00 471.96 C864.35,473.58 846.77,474.09 839.04,472.90 C821.69,470.24 802.91,460.52 798.45,451.90 C795.29,445.78 797.74,437.38 803.90,433.27 C806.45,431.57 808.73,431.00 813.05,431.00 C818.28,431.00 819.33,431.39 824.65,435.37 C832.28,441.07 835.58,442.69 843.20,444.49 C860.15,448.48 875.00,443.62 875.00,434.08 C875.00,426.46 870.32,423.50 852.00,419.50 C830.69,414.85 817.97,410.00 813.31,404.74 C811.54,402.76 811.55,402.74 813.65,403.83 C815.28,404.69 816.04,404.66 816.84,403.70 C817.41,403.00 819.21,402.33 820.84,402.21 C822.46,402.09 826.32,400.86 829.42,399.49 C832.52,398.12 835.83,397.00 836.78,397.00 C837.73,396.99 839.97,396.09 841.77,395.00 C843.57,393.90 845.82,392.97 846.77,392.94 C848.07,392.89 847.94,392.65 846.25,391.97 C841.92,390.23 844.09,390.29 854.75,392.20 C868.67,394.71 875.77,396.77 876.81,398.62 C877.26,399.43 879.47,400.27 881.72,400.47 C889.92,401.22 898.39,407.98 903.07,417.50 C906.11,423.67 906.22,424.30 905.85,434.22 C905.52,443.00 905.05,445.37 902.68,450.22 C897.74,460.32 885.31,469.13 872.00,471.96 ZM 633.80 470.22 C630.23,472.08 619.52,473.28 615.04,472.33 C601.64,469.49 591.70,460.66 586.78,447.23 C584.87,442.02 584.64,438.86 584.26,412.50 C583.99,394.16 584.21,382.58 584.86,381.00 L 585.87 378.50 L 585.94 381.25 C585.97,382.76 586.39,384.00 586.87,384.00 C587.35,384.00 588.39,386.31 589.17,389.14 C590.50,393.92 590.94,394.41 595.37,396.15 C598.00,397.18 601.80,397.90 603.82,397.75 C607.09,397.50 607.54,397.14 607.83,394.48 C608.19,391.17 609.23,389.73 611.49,389.40 C612.55,389.24 613.03,390.13 613.12,392.34 C613.18,394.08 613.44,394.71 613.69,393.75 C613.94,392.79 614.56,392.00 615.07,392.00 C615.61,392.00 616.00,400.75 616.00,412.93 C616.00,424.45 616.43,435.00 616.96,436.39 C618.23,439.74 622.87,442.00 628.47,442.00 C632.25,442.00 633.65,442.57 636.71,445.37 C640.09,448.47 640.42,449.26 640.75,455.12 C641.20,462.86 639.07,467.49 633.80,470.22 ZM 1103.65 470.30 C1099.35,472.53 1089.32,473.37 1083.73,471.97 C1074.20,469.57 1066.17,463.88 1060.96,455.82 C1054.68,446.10 1053.97,440.89 1054.18,405.80 C1054.28,389.14 1054.53,377.64 1054.73,380.25 C1054.94,382.86 1055.53,385.00 1056.05,385.00 C1056.57,385.00 1057.00,386.12 1057.00,387.50 C1057.00,388.88 1057.48,390.00 1058.07,390.00 C1058.66,390.00 1059.05,391.01 1058.93,392.25 C1058.82,393.49 1059.06,396.34 1059.46,398.59 L 1060.20 402.68 L 1064.51 402.25 C1067.92,401.91 1069.26,402.26 1070.91,403.91 C1074.51,407.51 1082.00,406.48 1082.00,402.39 C1082.00,401.08 1082.42,400.00 1082.93,400.00 C1083.44,400.00 1084.06,398.99 1084.29,397.75 C1084.53,396.51 1084.79,403.48 1084.86,413.23 C1085.06,438.32 1086.22,440.73 1098.80,442.08 C1108.49,443.12 1112.85,448.74 1111.73,458.73 C1111.11,464.17 1108.64,467.71 1103.65,470.30 ZM 505.15 400.97 C496.22,403.45 488.92,401.20 484.99,394.76 C482.70,390.99 482.17,385.07 484.29,386.83 C486.60,388.74 492.03,389.13 495.09,387.61 C496.69,386.81 498.00,386.54 498.00,387.00 C498.00,387.47 498.76,388.00 499.68,388.18 C501.24,388.48 501.24,388.61 499.70,390.16 C498.78,391.07 497.47,392.06 496.77,392.35 C494.37,393.34 499.03,395.86 504.54,396.55 C510.76,397.33 511.04,399.34 505.15,400.97 ZM 1134.47 399.05 C1133.64,400.67 1132.84,402.00 1132.70,402.00 C1132.42,402.00 1123.00,383.18 1123.00,382.62 C1123.00,382.43 1124.01,382.38 1125.25,382.51 C1126.49,382.64 1128.11,382.80 1128.85,382.87 C1129.59,382.94 1131.50,384.40 1133.10,386.11 C1136.43,389.67 1136.92,394.32 1134.47,399.05 ZM 812.55 391.77 C812.22,393.29 811.12,395.79 810.13,397.31 C808.01,400.54 807.26,400.00 804.06,392.94 C802.49,389.47 802.08,386.64 802.21,380.00 C802.33,373.62 802.46,372.87 802.74,376.97 C803.18,383.33 804.17,384.91 807.51,384.55 C808.84,384.40 810.75,385.05 811.76,385.99 C812.77,386.93 814.25,387.95 815.05,388.27 C816.20,388.72 816.15,388.86 814.83,388.92 C813.85,388.97 812.91,390.14 812.55,391.77 ZM 435.49 397.62 C436.24,400.87 436.36,403.00 435.78,403.00 C435.25,403.00 434.58,402.10 434.29,401.00 C434.00,399.90 433.34,399.00 432.82,399.00 C432.31,399.00 432.14,398.59 432.45,398.09 C432.76,397.59 431.86,397.30 430.45,397.46 C427.49,397.78 422.87,394.48 424.60,393.27 C425.21,392.85 426.23,391.49 426.89,390.25 C427.54,389.01 428.50,388.00 429.04,388.00 C431.24,388.00 434.32,392.58 435.49,397.62 ZM 931.08 391.75 C931.04,392.44 930.62,393.00 930.16,393.00 C928.78,393.00 927.00,388.16 927.00,384.41 L 927.00 380.91 L 929.59 383.50 C931.13,385.04 931.94,386.71 931.59,387.64 C931.20,388.65 931.69,389.37 933.00,389.71 C934.10,390.00 935.00,390.86 935.00,391.62 C935.00,393.34 932.35,393.45 931.66,391.75 C931.26,390.75 931.14,390.75 931.08,391.75 ZM 1153.35 375.71 C1156.23,381.39 1155.42,382.82 1150.71,380.36 C1147.68,378.77 1147.14,375.56 1149.38,372.49 C1150.67,370.73 1150.94,370.95 1153.35,375.71 ZM 1191.80 405.88 C1192.49,406.30 1194.47,406.44 1196.21,406.18 L 1199.37 405.72 L 1197.11 403.89 C1194.61,401.86 1195.06,400.00 1198.06,400.00 C1199.13,400.00 1200.00,399.59 1200.00,399.09 C1200.00,398.60 1198.99,398.41 1197.75,398.68 C1196.40,398.98 1195.96,398.84 1196.64,398.34 C1197.87,397.43 1196.54,395.73 1194.21,395.25 C1192.69,394.94 1192.69,395.52 1194.21,397.97 C1195.24,399.62 1195.05,400.31 1192.99,402.51 C1191.19,404.43 1190.88,405.31 1191.80,405.88 ZM 769.74 397.75 C770.49,399.74 773.74,399.20 775.41,396.82 C777.19,394.28 775.97,392.00 772.85,392.00 C770.85,392.00 768.91,395.58 769.74,397.75 ZM 685.20 384.98 C683.22,388.47 681.69,389.29 680.12,387.72 C677.27,384.87 679.48,382.00 684.54,382.00 C686.88,382.00 686.89,382.03 685.20,384.98 ZM 900.00 377.50 C896.93,380.77 894.04,381.40 894.56,378.69 C895.18,375.47 897.47,373.70 899.97,374.49 L 902.17 375.19 ZM 1006.50 377.75 L 1006.50 377.78 C1006.59,378.98 1006.64,379.66 1006.39,379.79 C1006.08,379.97 1005.28,379.29 1003.47,377.73 L 1003.44 377.70 L 1000.77 375.40 L 1003.55 375.45 C1005.71,375.49 1006.37,376.01 1006.50,377.75 ZM 878.67 407.33 C879.88,408.55 882.00,408.02 882.00,406.50 C882.00,405.67 881.11,405.00 880.00,405.00 C878.01,405.00 877.40,406.07 878.67,407.33 ZM 747.28 385.94 C746.85,386.26 746.24,386.86 745.91,387.27 C745.59,387.67 744.82,386.90 744.20,385.54 C743.12,383.17 743.17,383.12 745.57,384.21 C746.94,384.84 747.71,385.61 747.28,385.94 ZM 668.50 396.00 C668.16,396.55 667.43,397.00 666.88,397.00 C666.33,397.00 666.16,396.55 666.50,396.00 C666.84,395.45 667.57,395.00 668.12,395.00 C668.67,395.00 668.84,395.45 668.50,396.00 Z" fill="rgb(37,149,152)"/>
<path d="M 344.63 425.08 C344.59,423.80 344.42,422.83 344.08,422.26 C343.12,420.60 343.06,420.60 343.03,422.31 C343.01,423.30 342.55,423.84 342.00,423.50 C341.43,423.14 340.99,424.08 340.98,425.69 C340.95,428.85 338.82,431.81 334.75,434.34 C333.24,435.28 332.00,436.63 332.00,437.35 C332.00,439.25 328.21,440.99 321.96,441.98 C318.96,442.46 314.70,443.32 312.50,443.90 C310.30,444.48 306.87,444.96 304.87,444.98 C302.88,444.99 300.73,445.63 300.09,446.39 C298.12,448.77 295.03,449.02 293.72,446.92 C292.67,445.24 291.28,445.00 282.51,444.97 C270.85,444.94 261.65,442.40 252.88,436.78 C243.99,431.09 224.43,413.29 222.89,409.50 C222.67,408.95 221.23,406.10 219.69,403.17 C217.47,398.95 216.61,398.08 215.54,398.97 C214.80,399.58 213.14,399.84 211.85,399.53 C210.56,399.22 208.15,398.80 206.50,398.60 C197.97,397.52 197.01,396.97 196.88,393.12 C196.82,391.13 196.82,389.15 196.89,388.73 C196.96,388.30 195.77,387.48 194.26,386.91 C192.12,386.10 190.91,386.21 188.87,387.42 C186.53,388.80 186.08,388.81 184.99,387.49 C183.59,385.80 181.00,385.49 181.00,387.00 C181.00,387.55 179.81,388.00 178.36,388.00 L 176.45 388.00 C176.31,385.00 176.09,383.01 175.87,383.00 C174.78,383.00 171.83,390.77 170.11,397.88 C170.78,394.54 171.27,391.67 171.28,391.00 C171.29,390.17 171.72,389.23 172.24,388.89 C172.75,388.55 172.43,388.00 171.53,387.65 C170.63,387.31 170.15,387.44 170.46,387.94 C170.78,388.45 170.58,389.14 170.02,389.49 C169.46,389.84 169.00,389.61 169.00,389.00 C169.00,388.39 168.59,388.14 168.09,388.45 C167.58,388.76 166.95,388.45 166.67,387.76 C166.40,387.06 165.60,387.94 164.87,389.75 C163.51,393.12 161.69,393.92 160.30,391.75 C159.86,391.06 158.15,389.75 156.50,388.84 C152.74,386.76 151.05,383.63 150.94,378.50 L 150.86 374.50 L 148.97 380.00 C148.50,381.36 148.06,382.73 147.65,384.11 C149.32,377.43 151.43,370.81 153.95,364.50 C161.68,345.09 185.95,305.84 192.25,302.53 C193.49,301.89 195.40,300.87 196.50,300.28 C197.60,299.70 199.75,298.72 201.29,298.11 C203.64,297.18 203.91,296.71 203.04,295.07 C201.55,292.29 201.75,289.93 203.67,287.81 C204.59,286.80 205.41,284.99 205.50,283.79 C205.58,282.60 206.52,281.14 207.57,280.56 C208.62,279.98 210.54,278.72 211.84,277.78 C214.14,276.10 214.29,276.13 217.24,279.08 C218.90,280.75 220.88,281.88 221.63,281.59 C224.36,280.54 223.59,287.90 220.29,294.41 C217.17,300.57 215.33,306.68 214.09,315.03 C213.56,318.59 212.16,326.90 210.97,333.50 C208.58,346.77 208.81,359.90 211.53,366.42 C212.34,368.36 213.00,371.54 213.00,373.50 C213.00,375.47 214.34,379.72 216.01,383.03 C218.44,387.83 219.50,389.00 221.43,389.00 C224.23,389.00 229.98,392.03 229.99,393.51 C230.00,394.07 231.32,395.62 232.94,396.95 C234.56,398.29 235.70,399.67 235.48,400.03 C234.81,401.12 238.07,405.07 239.11,404.43 C239.65,404.10 240.65,404.29 241.33,404.86 C243.72,406.84 257.57,407.27 263.51,405.54 C268.46,404.10 269.51,403.19 269.11,400.72 C269.04,400.29 269.69,399.67 270.55,399.34 C272.72,398.51 278.00,403.76 278.00,406.75 C278.00,408.07 278.44,408.85 279.00,408.50 C279.55,408.16 280.00,406.58 280.00,404.98 C280.00,403.28 280.91,401.23 282.19,400.04 C284.78,397.62 285.38,397.54 286.93,399.42 C288.14,400.88 292.84,400.17 295.35,398.16 C295.98,397.64 298.37,396.92 300.66,396.54 C303.89,396.01 304.95,395.33 305.40,393.53 C305.76,392.12 307.17,390.79 308.99,390.15 C310.65,389.58 312.00,388.67 312.00,388.13 C312.00,387.60 313.24,386.88 314.75,386.53 C318.03,385.78 321.00,383.46 323.44,379.73 C324.42,378.23 325.85,377.00 326.62,377.00 C327.38,377.00 328.07,376.44 328.15,375.75 C328.23,375.06 328.39,373.83 328.50,373.00 C328.61,372.17 328.77,370.51 328.85,369.30 C328.99,367.31 329.27,367.20 332.00,368.15 C333.65,368.72 334.77,369.56 334.49,370.01 C334.21,370.46 334.43,370.98 334.96,371.16 C335.50,371.35 336.57,374.56 337.36,378.31 C338.14,382.05 339.46,385.65 340.29,386.31 C342.47,388.04 345.01,403.82 344.98,415.50 C344.98,418.77 344.86,421.97 344.63,425.08 ZM 438.77 408.23 C437.85,406.37 436.81,405.01 436.25,405.00 C435.56,405.00 435.00,405.40 435.00,405.88 C435.00,406.37 434.00,407.03 432.79,407.35 C430.36,407.98 427.00,405.62 427.00,403.27 C427.00,401.07 424.40,399.00 421.63,399.00 C420.25,399.00 418.84,398.55 418.50,398.00 C418.16,397.45 416.38,397.00 414.55,397.00 C411.14,397.00 410.00,395.72 410.00,391.89 C410.00,390.81 410.67,389.68 411.49,389.36 C412.32,389.05 412.71,388.34 412.37,387.79 C411.97,387.15 411.49,387.22 411.02,387.97 C410.48,388.84 409.89,388.75 408.76,387.62 C407.92,386.78 407.00,386.34 406.70,386.63 C406.40,386.93 405.58,386.12 404.88,384.84 C403.64,382.59 403.49,382.09 403.15,379.19 C403.07,378.47 402.50,378.19 401.88,378.57 C401.75,378.65 401.64,378.80 401.55,379.02 C401.68,371.22 402.44,363.76 403.83,358.67 C408.66,340.92 418.51,323.93 426.33,319.87 C428.76,318.60 429.97,317.37 429.63,316.49 C429.32,315.67 431.33,313.07 434.61,310.08 C440.23,304.94 446.18,302.42 450.66,303.28 C452.10,303.55 454.22,302.81 456.19,301.36 C457.95,300.06 460.41,299.00 461.66,299.00 C464.03,299.00 468.00,295.50 468.00,293.39 C468.00,290.75 487.48,288.84 492.50,291.00 C493.60,291.47 494.08,291.89 493.56,291.93 C493.04,291.97 493.49,292.66 494.56,293.47 C496.43,294.89 496.41,294.94 494.00,295.00 C491.79,295.05 491.71,295.18 493.28,296.10 C495.53,297.40 499.58,296.84 499.26,295.26 C498.98,293.85 505.68,291.87 509.71,292.17 C511.28,292.29 513.07,292.08 513.69,291.69 C514.32,291.30 516.21,292.15 517.89,293.56 C519.58,294.98 521.38,295.88 521.89,295.57 C522.41,295.25 522.98,295.43 523.16,295.96 C523.35,296.50 525.30,297.19 527.50,297.50 C534.67,298.50 535.50,298.88 537.32,301.96 C538.30,303.63 539.61,305.00 540.22,305.00 C542.04,305.00 549.00,308.32 549.00,309.19 C549.00,309.64 549.60,310.00 550.33,310.00 C552.27,310.00 555.92,314.23 556.89,317.60 C558.21,322.22 557.06,326.57 553.38,330.87 C549.51,335.39 544.42,337.49 539.56,336.58 C537.74,336.24 532.54,333.28 528.01,330.01 C516.61,321.78 511.08,319.83 497.42,319.24 C484.13,318.67 478.11,319.79 468.10,324.74 C456.16,330.63 444.32,343.10 439.10,355.27 C432.48,370.71 432.47,392.76 438.77,408.23 ZM 778.25 386.94 C777.67,385.99 776.95,386.64 775.48,388.02 C774.13,389.29 772.23,390.40 771.26,390.49 C768.24,390.76 765.00,392.09 765.00,393.07 C765.00,393.58 764.17,394.00 763.15,394.00 C762.14,394.00 759.90,394.70 758.19,395.55 C755.81,396.74 754.59,396.85 753.04,396.02 C751.92,395.42 750.99,395.28 750.97,395.71 C750.95,396.15 750.22,395.60 749.35,394.50 C747.82,392.58 747.78,392.62 748.33,395.61 C749.84,403.91 750.08,408.71 749.20,413.87 C750.22,406.90 749.48,399.40 746.77,392.02 C743.61,383.39 738.23,376.94 730.87,372.96 C724.83,369.70 723.99,369.52 714.50,369.51 C705.19,369.50 704.08,369.72 698.41,372.68 C693.22,375.40 688.90,379.35 685.67,384.16 C686.86,382.03 686.64,382.00 684.54,382.00 C679.48,382.00 677.27,384.87 680.12,387.72 C681.40,389.00 682.65,388.69 684.15,386.64 C681.37,391.60 679.66,397.33 679.24,403.48 C679.44,398.46 679.15,397.94 677.00,396.75 C674.08,395.13 673.69,395.14 668.75,397.00 C665.64,398.16 665.00,398.88 665.00,401.20 C665.00,402.88 664.46,404.00 663.65,404.00 C661.85,404.00 655.69,400.93 654.77,399.58 C653.46,397.66 653.96,395.87 655.75,396.05 C658.81,396.36 660.13,396.03 659.55,395.08 C659.24,394.58 659.44,392.97 660.00,391.51 C661.20,388.34 659.73,385.73 655.17,382.96 L 652.18 381.14 L 651.10 383.82 C651.02,383.99 650.96,384.17 650.89,384.35 C653.56,374.54 658.42,366.90 666.35,359.24 C679.95,346.11 693.33,341.00 714.10,341.00 C736.42,341.00 751.74,347.17 764.57,361.34 C771.00,368.43 775.60,377.30 778.25,386.94 ZM 812.55 391.77 C812.91,390.14 813.85,388.97 814.83,388.92 C816.15,388.86 816.20,388.72 815.05,388.27 C814.25,387.95 812.77,386.93 811.76,385.99 C810.75,385.05 808.84,384.40 807.51,384.55 C804.17,384.91 803.18,383.33 802.74,376.97 C802.46,372.87 802.33,373.62 802.21,380.00 C802.11,385.11 802.33,387.97 803.15,390.59 C801.96,387.45 801.89,385.06 802.19,377.67 C802.67,365.93 804.42,361.52 811.36,354.59 C821.17,344.78 835.63,340.53 856.80,341.23 C868.61,341.62 871.54,342.07 878.00,344.46 C893.59,350.21 903.00,359.50 903.00,369.13 C903.00,371.93 902.77,373.43 901.76,375.06 L 899.97 374.49 C897.47,373.70 895.18,375.47 894.56,378.69 C894.13,380.91 895.99,380.89 898.36,379.02 C896.29,381.00 894.82,381.43 890.83,381.76 C884.69,382.27 880.91,380.83 875.05,375.72 C868.86,370.32 863.58,368.61 853.00,368.57 C842.24,368.54 836.96,369.96 834.02,373.71 C831.51,376.89 831.40,382.15 833.79,384.31 C836.56,386.81 843.77,389.64 852.00,391.46 C854.33,391.97 856.46,392.44 858.43,392.89 C857.26,392.66 856.03,392.44 854.75,392.20 C844.09,390.29 841.92,390.23 846.25,391.97 C847.94,392.65 848.07,392.89 846.77,392.94 C845.82,392.97 843.57,393.90 841.77,395.00 C839.97,396.09 837.73,396.99 836.78,397.00 C835.83,397.00 832.52,398.12 829.42,399.49 C826.32,400.86 822.46,402.09 820.84,402.21 C819.21,402.33 817.41,403.00 816.84,403.70 C816.04,404.66 815.28,404.69 813.65,403.83 C811.55,402.74 811.54,402.76 813.31,404.74 C813.58,405.06 813.89,405.37 814.22,405.67 C811.64,403.71 809.52,401.55 807.75,399.13 C808.49,399.45 809.17,398.76 810.13,397.31 C811.12,395.79 812.22,393.29 812.55,391.77 ZM 931.08 391.75 C931.14,390.75 931.26,390.75 931.66,391.75 C932.35,393.45 935.00,393.34 935.00,391.62 C935.00,390.86 934.10,390.00 933.00,389.71 C931.69,389.37 931.20,388.65 931.59,387.64 C931.94,386.71 931.13,385.04 929.59,383.50 L 927.00 380.91 L 927.00 384.41 C927.00,384.47 927.00,384.53 927.00,384.58 C926.80,382.94 926.70,381.24 926.70,379.46 C926.70,368.93 929.99,361.19 937.45,354.14 C947.16,344.95 959.25,341.00 977.62,341.00 C996.76,341.00 1010.19,345.14 1020.49,354.20 C1030.97,363.43 1031.61,375.53 1021.88,380.56 C1017.43,382.86 1011.96,382.50 1006.51,379.64 C1006.62,379.36 1006.57,378.74 1006.50,377.78 L 1006.50 377.75 C1006.37,376.01 1005.71,375.49 1003.55,375.45 L 1000.77 375.40 L 1003.44 377.70 L 1003.47 377.73 L 1003.84 378.04 C1003.39,377.74 1002.94,377.42 1002.49,377.08 C993.49,370.29 988.83,368.59 979.00,368.54 C964.52,368.47 957.00,372.11 957.00,379.18 C957.00,383.79 961.37,387.32 970.33,389.89 C964.94,388.85 963.05,388.90 962.39,389.83 C962.02,390.33 962.02,391.09 962.02,392.07 C962.02,392.17 962.02,392.27 962.02,392.38 C962.00,393.91 962.52,394.15 964.88,393.67 C966.47,393.36 968.03,393.37 968.36,393.70 C969.25,394.59 963.79,398.99 962.66,398.29 C962.13,397.96 961.97,398.14 962.30,398.68 C963.13,400.02 960.24,404.00 958.44,404.00 C957.65,404.00 957.00,403.50 957.00,402.89 C957.00,402.28 956.31,402.05 955.46,402.38 C953.12,403.27 952.45,400.13 954.62,398.48 C956.10,397.37 956.18,397.04 955.00,396.97 C947.88,396.51 941.72,395.80 937.58,394.95 C933.26,394.07 931.39,394.49 931.07,396.52 C930.04,394.86 929.21,393.11 928.55,391.27 C929.07,392.32 929.64,393.00 930.16,393.00 C930.62,393.00 931.04,392.44 931.08,391.75 ZM 616.71 434.98 C616.30,431.48 616.00,422.54 616.00,412.93 C616.00,400.75 615.61,392.00 615.07,392.00 C614.56,392.00 613.94,392.79 613.69,393.75 C613.44,394.71 613.18,394.08 613.12,392.34 C613.03,390.13 612.55,389.24 611.49,389.40 C609.23,389.73 608.19,391.17 607.83,394.48 C607.54,397.14 607.09,397.50 603.82,397.75 C601.80,397.90 598.00,397.18 595.37,396.15 C590.94,394.41 590.50,393.92 589.17,389.14 C588.39,386.31 587.35,384.00 586.87,384.00 C586.39,384.00 585.97,382.76 585.94,381.25 L 585.87 378.50 L 584.86 381.00 C584.72,381.33 584.60,382.11 584.51,383.29 C584.51,379.49 584.51,375.45 584.51,371.13 L 584.50 300.77 L 586.91 299.13 C588.23,298.24 590.79,296.04 592.59,294.25 C595.19,291.67 596.69,291.00 599.86,291.00 C604.01,291.00 606.41,292.57 607.50,296.00 C607.85,297.10 609.14,298.25 610.37,298.56 C615.33,299.80 615.40,300.74 616.01,371.50 C616.27,401.32 616.55,426.77 616.71,434.98 ZM 1086.63 435.04 C1087.57,437.37 1088.53,438.88 1090.14,439.91 C1085.60,437.11 1085.00,430.62 1084.86,413.23 C1084.79,403.48 1084.53,396.51 1084.29,397.75 C1084.06,398.99 1083.44,400.00 1082.93,400.00 C1082.42,400.00 1082.00,401.08 1082.00,402.39 C1082.00,406.48 1074.51,407.51 1070.91,403.91 C1069.26,402.26 1067.92,401.91 1064.51,402.25 L 1060.20 402.68 L 1059.46 398.59 C1059.06,396.34 1058.82,393.49 1058.93,392.25 C1059.05,391.01 1058.66,390.00 1058.07,390.00 C1057.48,390.00 1057.00,388.88 1057.00,387.50 C1057.00,386.12 1056.57,385.00 1056.05,385.00 C1055.53,385.00 1054.94,382.86 1054.73,380.25 C1054.53,377.64 1054.28,389.14 1054.18,405.80 C1054.16,409.74 1054.15,413.31 1054.15,416.54 C1054.00,405.67 1054.00,391.06 1054.00,371.05 L 1054.00 306.00 L 1056.60 306.00 C1058.02,306.00 1060.49,306.93 1062.09,308.06 C1064.07,309.47 1066.16,310.02 1068.74,309.81 C1070.81,309.64 1072.37,309.15 1072.21,308.71 C1072.06,308.28 1072.62,307.24 1073.46,306.39 C1074.51,305.34 1074.71,304.33 1074.10,303.18 C1073.37,301.82 1073.70,301.46 1075.85,301.27 C1080.28,300.90 1082.60,301.83 1083.80,304.47 C1084.62,306.26 1084.96,324.61 1084.98,369.00 C1085.02,423.60 1085.21,431.50 1086.63,435.04 ZM 1166.96 404.00 C1165.12,400.21 1163.66,397.32 1163.45,397.12 C1163.19,396.86 1161.75,397.78 1160.24,399.16 C1157.24,401.91 1151.10,405.00 1148.63,405.00 C1147.77,405.00 1146.59,405.90 1146.00,407.01 C1145.25,408.40 1144.24,408.86 1142.71,408.52 C1142.14,408.39 1141.61,408.27 1141.12,408.15 C1138.75,407.59 1137.27,407.24 1136.73,407.80 C1135.82,408.74 1137.55,412.23 1142.18,421.57 C1142.75,422.73 1143.37,423.98 1144.03,425.32 C1145.03,427.34 1146.05,429.41 1147.07,431.46 C1142.88,423.06 1137.74,412.73 1132.49,402.15 C1110.88,358.54 1110.13,356.50 1113.41,350.20 C1116.29,344.66 1119.59,342.62 1126.28,342.24 C1136.28,341.68 1137.75,343.08 1146.70,361.79 C1150.84,370.43 1157.77,384.87 1162.11,393.87 C1163.73,397.24 1165.41,400.76 1166.96,404.00 ZM 505.15 400.97 C511.04,399.34 510.76,397.33 504.54,396.55 C499.03,395.86 494.37,393.34 496.77,392.35 C497.47,392.06 498.78,391.07 499.70,390.16 C501.24,388.61 501.24,388.48 499.68,388.18 C498.76,388.00 498.00,387.47 498.00,387.00 C498.00,386.54 496.69,386.81 495.09,387.61 C492.03,389.13 486.60,388.74 484.29,386.83 C483.71,386.34 483.32,386.44 483.12,386.91 C483.23,382.61 485.23,378.45 489.19,376.01 C492.32,374.09 494.03,373.98 520.87,374.05 C545.46,374.11 549.58,374.34 551.76,375.76 C556.68,378.99 557.00,381.41 557.00,415.99 L 557.00 448.04 L 556.93 422.27 C556.89,408.10 556.53,395.66 556.12,394.63 C555.43,392.87 555.29,392.86 553.69,394.45 C552.76,395.38 552.00,396.56 552.00,397.07 C552.00,397.58 549.00,398.00 545.33,398.00 C540.49,398.00 538.15,398.46 536.81,399.68 C535.39,400.96 534.68,401.08 533.78,400.18 C531.99,398.39 530.02,398.76 527.94,401.25 C526.29,403.24 526.06,405.34 526.03,419.15 L 526.00 434.80 L 526.00 402.00 L 509.75 402.00 C505.54,402.00 502.37,401.98 499.92,401.91 C501.59,401.79 503.34,401.48 505.15,400.97 ZM 1220.30 398.71 C1224.59,388.77 1225.42,385.33 1222.56,389.25 C1221.85,390.21 1220.81,391.00 1220.23,391.00 C1219.65,391.00 1219.30,392.11 1219.45,393.47 C1219.60,394.83 1219.33,395.71 1218.86,395.41 C1218.39,395.12 1218.00,395.49 1218.00,396.23 C1218.00,396.97 1216.99,397.65 1215.75,397.74 C1211.24,398.08 1209.00,399.08 1208.93,400.77 C1208.87,402.23 1208.72,402.18 1208.00,400.50 C1207.53,399.40 1207.10,398.95 1207.05,399.50 C1207.01,400.05 1206.53,399.83 1206.00,399.00 C1205.35,397.99 1205.03,397.91 1205.02,398.76 C1205.00,399.75 1204.59,399.76 1203.09,398.82 C1201.63,397.91 1201.26,396.75 1201.54,393.94 C1201.83,391.03 1201.39,389.77 1199.43,387.94 C1194.48,383.28 1194.13,383.67 1185.12,403.54 L 1176.75 422.00 L 1173.37 422.00 C1170.70,422.00 1170.00,421.60 1170.00,420.05 C1170.00,418.98 1170.65,417.73 1171.45,417.29 C1172.46,416.73 1172.23,415.33 1169.91,410.24 C1171.14,412.85 1172.10,414.94 1172.63,416.12 C1174.09,419.35 1175.60,422.00 1175.99,422.00 C1176.77,422.00 1188.61,396.15 1197.06,376.00 C1210.36,344.29 1212.05,341.99 1222.15,342.01 C1231.20,342.02 1236.98,347.57 1236.99,356.25 C1237.00,360.14 1234.91,365.71 1225.37,387.25 C1223.71,390.99 1221.99,394.88 1220.30,398.71 ZM 1134.47 399.05 C1136.92,394.32 1136.43,389.67 1133.10,386.11 C1131.50,384.40 1129.59,382.94 1128.85,382.87 C1128.11,382.80 1126.49,382.64 1125.25,382.51 C1124.01,382.38 1123.00,382.43 1123.00,382.62 C1123.00,383.18 1132.42,402.00 1132.70,402.00 C1132.84,402.00 1133.64,400.67 1134.47,399.05 ZM 1070.00 300.00 C1071.33,300.86 1071.33,300.97 1070.00,300.95 C1069.18,300.95 1067.70,300.48 1066.73,299.91 C1065.76,299.34 1064.04,299.17 1062.91,299.53 C1061.37,300.02 1060.72,299.66 1060.31,298.09 C1060.01,296.94 1059.34,296.00 1058.82,296.00 C1057.21,296.00 1058.99,294.06 1062.06,292.47 C1064.69,291.11 1065.31,291.11 1067.99,292.49 C1070.22,293.65 1070.92,294.67 1070.77,296.52 C1070.66,297.88 1070.10,299.01 1069.53,299.02 C1068.96,299.02 1069.18,299.47 1070.00,300.00 ZM 435.49 397.62 C434.32,392.58 431.24,388.00 429.04,388.00 C428.50,388.00 427.54,389.01 426.89,390.25 C426.23,391.49 425.21,392.85 424.60,393.27 C422.87,394.48 427.49,397.78 430.45,397.46 C431.86,397.30 432.76,397.59 432.45,398.09 C432.14,398.59 432.31,399.00 432.82,399.00 C433.34,399.00 434.00,399.90 434.29,401.00 C434.58,402.10 435.25,403.00 435.78,403.00 C436.36,403.00 436.24,400.87 435.49,397.62 ZM 1153.35 375.71 C1150.94,370.95 1150.67,370.73 1149.38,372.49 C1147.14,375.56 1147.68,378.77 1150.71,380.36 C1155.42,382.82 1156.23,381.39 1153.35,375.71 ZM 1191.80 405.88 C1190.88,405.31 1191.19,404.43 1192.99,402.51 C1195.05,400.31 1195.24,399.62 1194.21,397.97 C1192.69,395.52 1192.69,394.94 1194.21,395.25 C1196.54,395.73 1197.87,397.43 1196.64,398.34 C1195.96,398.84 1196.40,398.98 1197.75,398.68 C1198.99,398.41 1200.00,398.60 1200.00,399.09 C1200.00,399.59 1199.13,400.00 1198.06,400.00 C1195.06,400.00 1194.61,401.86 1197.11,403.89 L 1199.37 405.72 L 1196.21 406.18 C1194.47,406.44 1192.49,406.30 1191.80,405.88 ZM 769.74 397.75 C768.91,395.58 770.85,392.00 772.85,392.00 C775.97,392.00 777.19,394.28 775.41,396.82 C773.74,399.20 770.49,399.74 769.74,397.75 ZM 947.15 409.99 C948.88,410.67 949.75,410.55 950.96,409.79 C952.55,408.80 953.21,408.81 954.22,409.82 C955.24,410.84 955.22,411.24 954.13,411.92 C953.62,412.24 953.70,412.63 954.38,413.09 C951.77,412.12 949.36,411.09 947.15,409.99 ZM 1217.64 404.75 C1215.47,409.67 1213.46,414.24 1211.84,417.94 L 1209.43 416.36 C1206.74,414.60 1206.24,413.00 1208.38,413.00 C1209.14,413.00 1210.03,414.00 1210.35,415.23 C1211.16,418.33 1212.07,417.20 1217.64,404.75 ZM 887.07 401.78 C885.30,401.09 883.50,400.64 881.72,400.47 C879.47,400.27 877.26,399.43 876.81,398.62 C876.42,397.92 875.17,397.20 873.03,396.43 C878.04,397.81 881.19,398.99 884.50,400.53 C885.39,400.94 886.25,401.36 887.07,401.78 ZM 878.67 407.33 C877.40,406.07 878.01,405.00 880.00,405.00 C881.11,405.00 882.00,405.67 882.00,406.50 C882.00,408.02 879.88,408.55 878.67,407.33 ZM 747.28 385.94 C747.71,385.61 746.94,384.84 745.57,384.21 C743.17,383.12 743.12,383.17 744.20,385.54 C744.82,386.90 745.59,387.67 745.91,387.27 C746.24,386.86 746.85,386.26 747.28,385.94 ZM 143.16 419.65 C143.80,436.56 148.31,453.19 156.49,467.85 C149.94,456.62 145.75,444.07 143.89,430.16 C143.45,426.85 143.21,423.33 143.16,419.65 ZM 204.00 300.50 C204.00,301.33 204.68,302.00 205.50,302.00 C206.32,302.00 207.00,301.33 207.00,300.50 C207.00,299.67 206.32,299.00 205.50,299.00 C204.68,299.00 204.00,299.67 204.00,300.50 ZM 265.34 514.93 C258.76,516.27 252.75,516.87 245.86,516.86 C252.84,516.67 260.10,516.00 265.34,514.93 C280.11,511.92 293.58,505.97 305.11,497.55 C293.65,506.14 280.61,511.82 265.34,514.93 ZM 190.86 502.48 C198.14,506.54 206.60,510.12 214.86,512.69 C206.32,510.30 198.27,506.87 190.86,502.48 ZM 335.71 460.49 C338.80,453.71 341.64,444.24 343.25,436.35 C341.75,444.98 339.25,452.98 335.71,460.49 ZM 668.50 396.00 C668.84,395.45 668.67,395.00 668.12,395.00 C667.57,395.00 666.84,395.45 666.50,396.00 C666.16,396.55 666.33,397.00 666.88,397.00 C667.43,397.00 668.16,396.55 668.50,396.00 ZM 681.87 466.17 C671.87,461.18 661.16,450.80 655.71,440.98 C658.45,445.73 661.97,450.16 666.38,454.52 C671.39,459.47 676.35,463.24 681.87,466.17 ZM 179.95 457.38 C190.96,473.68 208.80,486.05 229.00,490.23 C209.63,486.36 191.09,474.19 179.95,457.38 ZM 1016.13 463.87 C1021.10,460.35 1024.99,455.99 1027.66,450.96 C1026.52,453.26 1025.15,455.42 1023.56,457.37 C1021.73,459.62 1019.16,461.84 1016.13,463.87 ZM 402.41 397.21 C405.44,417.54 413.64,433.39 428.64,448.34 C415.65,435.39 407.92,421.98 403.83,405.30 C403.25,402.93 402.78,400.18 402.41,397.21 ZM 168.94 403.92 C167.96,410.65 167.80,418.40 168.48,425.49 C167.64,418.37 167.78,411.10 168.94,403.92 ZM 455.23 430.00 C448.58,424.58 443.16,418.00 439.93,410.85 C440.07,411.14 440.21,411.43 440.35,411.71 C443.86,418.64 449.05,424.87 455.23,430.00 ZM 730.18 472.46 C722.66,474.04 714.96,474.41 707.36,473.60 C714.98,474.24 723.46,473.88 730.18,472.46 ZM 981.71 392.40 C988.10,393.70 993.65,395.02 998.48,396.42 C997.26,396.08 996.01,395.77 994.73,395.46 L 992.55 394.95 C988.40,393.97 984.81,393.12 981.71,392.40 ZM 679.13 406.09 C678.97,416.67 682.23,426.08 688.12,433.02 C682.23,426.19 678.86,416.82 679.13,406.09 ZM 216.91 471.99 C201.94,461.28 189.68,446.03 182.90,428.56 C181.29,424.41 179.97,419.92 178.95,415.22 C180.00,420.02 181.32,424.47 182.91,428.56 C189.62,445.91 201.99,461.25 216.91,471.99 ZM 743.14 429.79 C739.86,434.81 735.53,438.73 730.39,441.32 C735.66,438.49 739.95,434.52 743.14,429.79 ZM 934.69 401.22 C936.89,403.21 939.69,405.48 942.00,407.12 C939.14,405.31 936.71,403.35 934.69,401.22 ZM 726.08 443.11 C723.36,444.01 720.46,444.58 717.42,444.78 C715.76,444.89 714.13,444.89 712.54,444.80 C717.16,444.93 722.08,444.34 726.08,443.11 ZM 585.05 439.13 C585.40,442.95 585.92,444.89 586.78,447.23 C588.04,450.67 589.63,453.80 591.52,456.61 C589.62,453.81 588.01,450.68 586.70,447.23 C585.89,445.10 585.38,443.70 585.05,439.13 ZM 1025.35 412.04 C1022.10,407.75 1017.58,404.20 1011.70,401.29 C1017.87,404.26 1022.17,407.71 1025.35,412.04 ZM 1060.96 455.82 C1058.55,452.09 1056.97,449.57 1055.94,444.74 C1056.97,449.05 1058.56,452.11 1060.96,455.82 ZM 258.98 489.40 C260.71,488.75 258.69,488.20 253.26,487.34 C251.65,487.08 250.05,486.77 248.45,486.42 C250.00,486.75 251.56,487.03 253.11,487.26 C257.51,487.90 260.44,488.73 259.71,489.14 C259.58,489.21 259.33,489.30 258.98,489.40 ZM 629.11 442.01 C628.90,442.00 628.69,442.00 628.47,442.00 C625.50,442.00 622.81,441.37 620.74,440.28 C623.13,441.27 626.03,441.99 628.26,442.00 C628.56,442.00 628.84,442.00 629.11,442.01 ZM 168.14 483.79 C170.82,486.67 173.79,489.60 176.68,492.22 C175.03,490.78 173.43,489.28 171.88,487.73 C170.59,486.44 169.35,485.12 168.14,483.79 ZM 1029.76 420.25 C1031.19,424.16 1031.88,428.45 1031.88,432.81 C1031.87,432.10 1031.84,431.39 1031.79,430.68 C1031.55,426.89 1030.88,423.42 1029.76,420.25 ZM 488.39 398.68 C490.00,399.97 491.87,400.89 493.94,401.42 C492.34,401.13 491.34,400.68 490.24,400.01 C489.58,399.60 488.96,399.16 488.39,398.68 ZM 648.46 416.94 C648.83,420.77 649.44,424.34 650.32,427.71 C649.38,424.30 648.78,420.83 648.46,416.94 ZM 980.21 420.12 C988.70,422.09 992.76,423.54 995.83,425.72 C992.86,423.62 988.90,422.20 980.21,420.12 ZM 1201.90 440.72 C1200.06,444.90 1198.17,449.20 1196.49,453.00 C1192.24,462.62 1184.07,481.30 1178.33,494.50 C1184.07,481.30 1192.24,462.62 1196.49,453.00 C1198.22,449.06 1200.12,444.76 1201.90,440.72 ZM 898.88 410.88 C900.49,412.84 901.85,415.02 903.07,417.50 C901.89,415.10 900.47,412.88 898.88,410.88 ZM 1154.85 446.93 C1155.53,448.28 1156.10,449.38 1156.50,450.14 C1158.15,453.28 1159.55,456.35 1159.91,457.60 C1159.55,456.35 1158.15,453.28 1156.49,450.14 C1156.17,449.54 1155.61,448.44 1154.85,446.93 ZM 632.07 442.36 C633.62,442.79 634.84,443.66 636.71,445.37 C634.85,443.67 633.61,442.79 632.07,442.36 ZM 773.84 438.83 C773.73,439.07 773.61,439.31 773.50,439.54 C774.48,437.49 775.10,436.08 775.67,434.65 C775.11,436.06 774.50,437.46 773.84,438.83 Z" fill="rgb(58,175,170)"/>
<path d="M 0.00 380.50 L 0.00 0.00 L 689.50 0.00 L 1379.00 0.00 L 1379.00 380.50 L 1379.00 761.00 L 689.50 761.00 L 0.00 761.00 L 0.00 380.50 ZM 1161.70 525.04 C1163.45,523.97 1165.57,522.06 1166.39,520.80 C1167.22,519.53 1172.59,507.70 1178.33,494.50 C1184.07,481.30 1192.24,462.62 1196.49,453.00 C1200.74,443.38 1206.36,430.55 1208.98,424.50 C1211.60,418.45 1218.97,401.69 1225.37,387.25 C1234.91,365.71 1237.00,360.14 1236.99,356.25 C1236.98,347.57 1231.20,342.02 1222.15,342.01 C1212.05,341.99 1210.36,344.29 1197.06,376.00 C1188.61,396.15 1176.77,422.00 1175.99,422.00 C1175.60,422.00 1174.09,419.35 1172.63,416.12 C1171.18,412.89 1166.45,402.87 1162.11,393.87 C1157.77,384.87 1150.84,370.43 1146.70,361.79 C1137.75,343.08 1136.28,341.68 1126.28,342.24 C1119.59,342.62 1116.29,344.66 1113.41,350.20 C1110.13,356.50 1110.88,358.54 1132.49,402.15 C1143.76,424.89 1154.56,446.49 1156.49,450.14 C1158.42,453.80 1160.00,457.36 1160.00,458.05 C1160.00,458.75 1155.28,469.96 1149.51,482.97 C1138.64,507.50 1137.35,511.26 1138.38,515.39 C1139.25,518.85 1143.85,524.02 1147.45,525.59 C1151.89,527.53 1158.01,527.29 1161.70,525.04 ZM 265.34 514.93 C285.19,510.89 301.29,502.49 315.04,489.00 C335.47,468.95 344.92,445.77 344.98,415.50 C345.01,403.82 342.47,388.04 340.29,386.31 C339.46,385.65 338.14,382.05 337.36,378.31 C336.57,374.56 335.50,371.35 334.96,371.16 C334.43,370.98 334.21,370.46 334.49,370.01 C334.77,369.56 333.65,368.72 332.00,368.15 C329.27,367.20 328.99,367.31 328.85,369.30 C328.77,370.51 328.61,372.17 328.50,373.00 C328.39,373.83 328.23,375.06 328.15,375.75 C328.07,376.44 327.38,377.00 326.62,377.00 C325.85,377.00 324.42,378.23 323.44,379.73 C321.00,383.46 318.03,385.78 314.75,386.53 C313.24,386.88 312.00,387.60 312.00,388.13 C312.00,388.67 310.65,389.58 308.99,390.15 C307.17,390.79 305.76,392.12 305.40,393.53 C304.95,395.33 303.89,396.01 300.66,396.54 C298.37,396.92 295.98,397.64 295.35,398.16 C292.84,400.17 288.14,400.88 286.93,399.42 C285.38,397.54 284.78,397.62 282.19,400.04 C280.91,401.23 280.00,403.28 280.00,404.98 C280.00,406.58 279.55,408.16 279.00,408.50 C278.44,408.85 278.00,408.07 278.00,406.75 C278.00,403.76 272.72,398.51 270.55,399.34 C269.69,399.67 269.04,400.29 269.11,400.72 C269.51,403.19 268.46,404.10 263.51,405.54 C257.57,407.27 243.72,406.84 241.33,404.86 C240.65,404.29 239.65,404.10 239.11,404.43 C238.07,405.07 234.81,401.12 235.48,400.03 C235.70,399.67 234.56,398.29 232.94,396.95 C231.32,395.62 230.00,394.07 229.99,393.51 C229.98,392.03 224.23,389.00 221.43,389.00 C219.50,389.00 218.44,387.83 216.01,383.03 C214.34,379.72 213.00,375.47 213.00,373.50 C213.00,371.54 212.34,368.36 211.53,366.42 C208.81,359.90 208.58,346.77 210.97,333.50 C212.16,326.90 213.56,318.59 214.09,315.03 C215.33,306.68 217.17,300.57 220.29,294.41 C223.59,287.90 224.36,280.54 221.63,281.59 C220.88,281.88 218.90,280.75 217.24,279.08 C214.29,276.13 214.14,276.10 211.84,277.78 C210.54,278.72 208.62,279.98 207.57,280.56 C206.52,281.14 205.58,282.60 205.50,283.79 C205.41,284.99 204.59,286.80 203.67,287.81 C201.75,289.93 201.55,292.29 203.04,295.07 C203.91,296.71 203.64,297.18 201.29,298.11 C199.75,298.72 197.60,299.70 196.50,300.28 C195.40,300.87 193.49,301.89 192.25,302.53 C185.95,305.84 161.68,345.09 153.95,364.50 C145.30,386.21 141.41,411.59 143.89,430.16 C146.94,452.94 156.24,472.07 171.88,487.73 C184.40,500.26 200.03,509.03 217.67,513.43 C230.07,516.52 231.20,516.67 244.34,516.85 C251.88,516.95 258.28,516.37 265.34,514.93 ZM 512.97 472.51 C528.20,469.30 545.27,460.77 552.81,452.59 L 557.00 448.04 L 557.00 415.99 C557.00,381.41 556.68,378.99 551.76,375.76 C549.58,374.34 545.46,374.11 520.87,374.05 C494.03,373.98 492.32,374.09 489.19,376.01 C480.65,381.26 481.23,394.51 490.24,400.01 C493.14,401.77 495.30,401.99 509.75,402.00 L 526.00 402.00 L 526.00 418.40 L 526.00 434.80 L 522.56 436.83 C516.38,440.48 504.65,444.15 497.40,444.72 C475.47,446.41 450.67,432.07 440.35,411.71 C432.51,396.23 431.97,371.91 439.10,355.27 C444.32,343.10 456.16,330.63 468.10,324.74 C478.11,319.79 484.13,318.67 497.42,319.24 C511.08,319.83 516.61,321.78 528.01,330.01 C532.54,333.28 537.74,336.24 539.56,336.58 C544.42,337.49 549.51,335.39 553.38,330.87 C557.06,326.57 558.21,322.22 556.89,317.60 C555.92,314.23 552.27,310.00 550.33,310.00 C549.60,310.00 549.00,309.64 549.00,309.19 C549.00,308.32 542.04,305.00 540.22,305.00 C539.61,305.00 538.30,303.63 537.32,301.96 C535.50,298.88 534.67,298.50 527.50,297.50 C525.30,297.19 523.35,296.50 523.16,295.96 C522.98,295.43 522.41,295.25 521.89,295.57 C521.38,295.88 519.58,294.98 517.89,293.56 C516.21,292.15 514.32,291.30 513.69,291.69 C513.07,292.08 511.28,292.29 509.71,292.17 C505.68,291.87 498.98,293.85 499.26,295.26 C499.58,296.84 495.53,297.40 493.28,296.10 C491.71,295.18 491.79,295.05 494.00,295.00 C496.41,294.94 496.43,294.89 494.56,293.47 C493.49,292.66 493.04,291.97 493.56,291.93 C494.08,291.89 493.60,291.47 492.50,291.00 C487.48,288.84 468.00,290.75 468.00,293.39 C468.00,295.50 464.03,299.00 461.66,299.00 C460.41,299.00 457.95,300.06 456.19,301.36 C454.22,302.81 452.10,303.55 450.66,303.28 C446.18,302.42 440.23,304.94 434.61,310.08 C431.33,313.07 429.32,315.67 429.63,316.49 C429.97,317.37 428.76,318.60 426.33,319.87 C418.51,323.93 408.66,340.92 403.83,358.67 C400.76,369.94 400.76,392.80 403.83,405.30 C407.92,421.98 415.65,435.39 428.64,448.34 C450.55,470.18 481.66,479.09 512.97,472.51 ZM 730.18 472.46 C749.11,468.49 765.84,455.60 773.84,438.83 C786.03,413.29 782.13,380.72 764.57,361.34 C751.74,347.17 736.42,341.00 714.10,341.00 C693.33,341.00 679.95,346.11 666.35,359.24 C653.92,371.24 649.04,383.19 648.29,403.50 C647.71,419.15 649.21,427.55 654.59,438.81 C659.60,449.30 671.27,460.96 682.08,466.27 C697.10,473.67 714.06,475.85 730.18,472.46 ZM 872.00 471.96 C885.31,469.13 897.74,460.32 902.68,450.22 C905.05,445.37 905.52,443.00 905.85,434.22 C906.22,424.30 906.11,423.67 903.07,417.50 C899.26,409.75 893.98,404.92 884.50,400.53 C878.04,397.53 872.21,395.90 852.00,391.46 C843.77,389.64 836.56,386.81 833.79,384.31 C831.40,382.15 831.51,376.89 834.02,373.71 C836.96,369.96 842.24,368.54 853.00,368.57 C863.58,368.61 868.86,370.32 875.05,375.72 C880.91,380.83 884.69,382.27 890.83,381.76 C895.60,381.37 896.77,380.83 899.66,377.67 C902.50,374.58 903.00,373.29 903.00,369.13 C903.00,359.50 893.59,350.21 878.00,344.46 C871.54,342.07 868.61,341.62 856.80,341.23 C835.63,340.53 821.17,344.78 811.36,354.59 C804.42,361.52 802.67,365.93 802.19,377.67 C801.82,386.89 802.01,388.33 804.26,393.17 C810.53,406.60 822.08,412.97 852.00,419.50 C870.32,423.50 875.00,426.46 875.00,434.08 C875.00,443.62 860.15,448.48 843.20,444.49 C835.58,442.69 832.28,441.07 824.65,435.37 C819.33,431.39 818.28,431.00 813.05,431.00 C808.73,431.00 806.45,431.57 803.90,433.27 C797.74,437.38 795.29,445.78 798.45,451.90 C802.91,460.52 821.69,470.24 839.04,472.90 C846.77,474.09 864.35,473.58 872.00,471.96 ZM 999.08 471.53 C1008.78,469.04 1018.74,463.28 1023.56,457.37 C1032.18,446.80 1034.40,430.04 1028.80,417.95 C1022.42,404.15 1010.07,397.80 977.50,391.57 C963.69,388.93 957.00,384.89 957.00,379.18 C957.00,372.11 964.52,368.47 979.00,368.54 C988.83,368.59 993.49,370.29 1002.49,377.08 C1009.21,382.15 1016.33,383.43 1021.88,380.56 C1031.61,375.53 1030.97,363.43 1020.49,354.20 C1010.19,345.14 996.76,341.00 977.62,341.00 C959.25,341.00 947.16,344.95 937.45,354.14 C929.99,361.19 926.70,368.93 926.70,379.46 C926.69,399.97 940.11,411.16 973.70,418.62 C989.53,422.14 993.79,423.67 997.70,427.24 C1003.09,432.17 1000.95,439.76 993.18,443.31 C989.51,444.98 986.55,445.44 979.50,445.44 C968.40,445.44 959.87,442.79 952.14,436.93 C945.72,432.06 943.16,431.00 937.82,431.00 C932.07,431.00 926.44,434.46 924.00,439.50 C921.64,444.37 921.54,445.98 923.35,450.28 C927.39,459.90 945.75,470.01 964.54,472.95 C972.99,474.28 991.32,473.52 999.08,471.53 ZM 633.80 470.22 C639.07,467.49 641.20,462.86 640.75,455.12 C640.42,449.26 640.09,448.47 636.71,445.37 C633.61,442.53 632.28,442.00 628.26,442.00 C624.37,441.99 618.41,439.80 616.79,437.76 C616.67,437.62 616.32,407.80 616.01,371.50 C615.40,300.74 615.33,299.80 610.37,298.56 C609.14,298.25 607.85,297.10 607.50,296.00 C606.41,292.57 604.01,291.00 599.86,291.00 C596.69,291.00 595.19,291.67 592.59,294.25 C590.79,296.04 588.23,298.24 586.91,299.13 L 584.50 300.77 L 584.51 371.13 C584.51,441.05 584.53,441.54 586.70,447.23 C591.87,460.81 601.68,469.50 615.04,472.33 C619.52,473.28 630.23,472.08 633.80,470.22 ZM 1103.65 470.30 C1108.64,467.71 1111.11,464.17 1111.73,458.73 C1112.85,448.74 1108.49,443.12 1098.80,442.08 C1090.73,441.21 1088.61,439.98 1086.63,435.04 C1085.21,431.50 1085.02,423.60 1084.98,369.00 C1084.96,324.61 1084.62,306.26 1083.80,304.47 C1082.60,301.83 1080.28,300.90 1075.85,301.27 C1073.70,301.46 1073.37,301.82 1074.10,303.18 C1074.71,304.33 1074.51,305.34 1073.46,306.39 C1072.62,307.24 1072.06,308.28 1072.21,308.71 C1072.37,309.15 1070.81,309.64 1068.74,309.81 C1066.16,310.02 1064.07,309.47 1062.09,308.06 C1060.49,306.93 1058.02,306.00 1056.60,306.00 L 1054.00 306.00 L 1054.00 371.05 C1054.00,444.40 1054.06,445.14 1060.96,455.82 C1066.17,463.88 1074.20,469.57 1083.73,471.97 C1089.32,473.37 1099.35,472.53 1103.65,470.30 ZM 1070.00 300.00 C1069.18,299.47 1068.96,299.02 1069.53,299.02 C1070.10,299.01 1070.66,297.88 1070.77,296.52 C1070.92,294.67 1070.22,293.65 1067.99,292.49 C1065.31,291.11 1064.69,291.11 1062.06,292.47 C1058.99,294.06 1057.21,296.00 1058.82,296.00 C1059.34,296.00 1060.01,296.94 1060.31,298.09 C1060.72,299.66 1061.37,300.02 1062.91,299.53 C1064.04,299.17 1065.76,299.34 1066.73,299.91 C1067.70,300.48 1069.18,300.95 1070.00,300.95 C1071.33,300.97 1071.33,300.86 1070.00,300.00 ZM 230.50 490.52 C200.35,484.92 175.13,461.04 169.53,432.79 C167.56,422.86 167.58,409.95 169.59,400.21 C171.15,392.59 174.66,383.00 175.87,383.00 C176.22,383.01 176.54,387.84 176.60,393.75 C176.70,406.04 178.93,418.34 182.90,428.56 C194.67,458.89 222.97,482.53 253.26,487.34 C262.30,488.77 261.88,489.33 250.50,490.96 C241.80,492.20 239.27,492.15 230.50,490.52 ZM 204.00 300.50 C204.00,299.67 204.68,299.00 205.50,299.00 C206.32,299.00 207.00,299.67 207.00,300.50 C207.00,301.33 206.32,302.00 205.50,302.00 C204.68,302.00 204.00,301.33 204.00,300.50 ZM 703.87 443.49 C687.77,438.33 678.12,422.85 679.21,403.95 C680.00,390.23 687.17,378.56 698.41,372.68 C704.08,369.72 705.19,369.50 714.50,369.51 C723.99,369.52 724.83,369.70 730.87,372.96 C738.23,376.94 743.61,383.39 746.77,392.02 C754.10,412.00 746.97,432.84 729.78,441.64 C723.25,444.98 711.21,445.84 703.87,443.49 Z" fill="rgb(95,192,186)"/>
<path d="M 0.00 380.50 L 0.00 0.00 L 689.50 0.00 L 1379.00 0.00 L 1379.00 380.50 L 1379.00 761.00 L 689.50 761.00 L 0.00 761.00 L 0.00 380.50 ZM 1161.70 525.04 C1163.45,523.97 1165.57,522.06 1166.39,520.80 C1167.22,519.53 1172.59,507.70 1178.33,494.50 C1184.07,481.30 1192.24,462.62 1196.49,453.00 C1200.74,443.38 1206.36,430.55 1208.98,424.50 C1211.60,418.45 1218.97,401.69 1225.37,387.25 C1234.91,365.71 1237.00,360.14 1236.99,356.25 C1236.98,347.57 1231.20,342.02 1222.15,342.01 C1212.05,341.99 1210.36,344.29 1197.06,376.00 C1188.61,396.15 1176.77,422.00 1175.99,422.00 C1175.60,422.00 1174.09,419.35 1172.63,416.12 C1171.18,412.89 1166.45,402.87 1162.11,393.87 C1157.77,384.87 1150.84,370.43 1146.70,361.79 C1137.75,343.08 1136.28,341.68 1126.28,342.24 C1119.59,342.62 1116.29,344.66 1113.41,350.20 C1110.13,356.50 1110.88,358.54 1132.49,402.15 C1143.76,424.89 1154.56,446.49 1156.49,450.14 C1158.42,453.80 1160.00,457.36 1160.00,458.05 C1160.00,458.75 1155.28,469.96 1149.51,482.97 C1138.64,507.50 1137.35,511.26 1138.38,515.39 C1139.25,518.85 1143.85,524.02 1147.45,525.59 C1151.89,527.53 1158.01,527.29 1161.70,525.04 ZM 265.34 514.93 C285.19,510.89 301.29,502.49 315.04,489.00 C327.98,476.30 335.43,464.24 340.37,447.98 C352.88,406.84 340.66,363.30 300.91,307.44 C281.57,280.27 269.11,262.18 263.76,253.50 C257.57,243.48 247.91,224.51 246.06,218.76 C245.40,216.71 244.52,214.82 244.11,214.57 C243.69,214.31 242.53,216.44 241.52,219.30 C235.39,236.70 221.12,260.18 196.40,293.57 C193.52,297.45 190.34,302.03 189.33,303.73 C188.32,305.44 183.49,312.84 178.58,320.17 C167.42,336.86 159.17,351.62 154.43,363.39 C145.32,385.97 141.35,411.14 143.89,430.16 C146.94,452.94 156.24,472.07 171.88,487.73 C184.40,500.26 200.03,509.03 217.67,513.43 C230.07,516.52 231.20,516.67 244.34,516.85 C251.88,516.95 258.28,516.37 265.34,514.93 ZM 512.97 472.51 C528.20,469.30 545.27,460.77 552.81,452.59 L 557.00 448.04 L 557.00 415.99 C557.00,381.41 556.68,378.99 551.76,375.76 C549.58,374.34 545.46,374.11 520.87,374.05 C494.03,373.98 492.32,374.09 489.19,376.01 C480.65,381.26 481.23,394.51 490.24,400.01 C493.14,401.77 495.30,401.99 509.75,402.00 L 526.00 402.00 L 526.00 418.40 L 526.00 434.80 L 522.56 436.83 C516.38,440.48 504.65,444.15 497.40,444.72 C475.47,446.41 450.67,432.07 440.35,411.71 C432.51,396.23 431.97,371.91 439.10,355.27 C444.32,343.10 456.16,330.63 468.10,324.74 C478.11,319.79 484.13,318.67 497.42,319.24 C511.08,319.83 516.61,321.78 528.01,330.01 C532.54,333.28 537.74,336.24 539.56,336.58 C544.42,337.49 549.51,335.39 553.38,330.87 C561.51,321.37 557.02,310.80 540.76,301.17 C515.98,286.49 483.99,284.46 457.00,295.86 C450.01,298.81 447.59,300.21 437.39,307.15 C433.11,310.07 422.48,320.60 420.65,323.73 C420.02,324.82 418.18,327.69 416.58,330.11 C395.83,361.28 396.16,405.75 417.37,435.34 C439.47,466.17 475.84,480.32 512.97,472.51 ZM 730.18 472.46 C749.11,468.49 765.84,455.60 773.84,438.83 C786.03,413.29 782.13,380.72 764.57,361.34 C751.74,347.17 736.42,341.00 714.10,341.00 C693.33,341.00 679.95,346.11 666.35,359.24 C653.92,371.24 649.04,383.19 648.29,403.50 C647.71,419.15 649.21,427.55 654.59,438.81 C659.60,449.30 671.27,460.96 682.08,466.27 C697.10,473.67 714.06,475.85 730.18,472.46 ZM 872.00 471.96 C885.31,469.13 897.74,460.32 902.68,450.22 C905.05,445.37 905.52,443.00 905.85,434.22 C906.22,424.30 906.11,423.67 903.07,417.50 C899.26,409.75 893.98,404.92 884.50,400.53 C878.04,397.53 872.21,395.90 852.00,391.46 C843.77,389.64 836.56,386.81 833.79,384.31 C831.40,382.15 831.51,376.89 834.02,373.71 C836.96,369.96 842.24,368.54 853.00,368.57 C863.58,368.61 868.86,370.32 875.05,375.72 C880.91,380.83 884.69,382.27 890.83,381.76 C895.60,381.37 896.77,380.83 899.66,377.67 C902.50,374.58 903.00,373.29 903.00,369.13 C903.00,359.50 893.59,350.21 878.00,344.46 C871.54,342.07 868.61,341.62 856.80,341.23 C835.63,340.53 821.17,344.78 811.36,354.59 C804.42,361.52 802.67,365.93 802.19,377.67 C801.82,386.89 802.01,388.33 804.26,393.17 C810.53,406.60 822.08,412.97 852.00,419.50 C870.32,423.50 875.00,426.46 875.00,434.08 C875.00,443.62 860.15,448.48 843.20,444.49 C835.58,442.69 832.28,441.07 824.65,435.37 C819.33,431.39 818.28,431.00 813.05,431.00 C808.73,431.00 806.45,431.57 803.90,433.27 C797.74,437.38 795.29,445.78 798.45,451.90 C802.91,460.52 821.69,470.24 839.04,472.90 C846.77,474.09 864.35,473.58 872.00,471.96 ZM 999.08 471.53 C1008.78,469.04 1018.74,463.28 1023.56,457.37 C1032.18,446.80 1034.40,430.04 1028.80,417.95 C1022.42,404.15 1010.07,397.80 977.50,391.57 C963.69,388.93 957.00,384.89 957.00,379.18 C957.00,372.11 964.52,368.47 979.00,368.54 C988.83,368.59 993.49,370.29 1002.49,377.08 C1009.21,382.15 1016.33,383.43 1021.88,380.56 C1031.61,375.53 1030.97,363.43 1020.49,354.20 C1010.19,345.14 996.76,341.00 977.62,341.00 C959.25,341.00 947.16,344.95 937.45,354.14 C929.99,361.19 926.70,368.93 926.70,379.46 C926.69,399.97 940.11,411.16 973.70,418.62 C989.53,422.14 993.79,423.67 997.70,427.24 C1003.09,432.17 1000.95,439.76 993.18,443.31 C989.51,444.98 986.55,445.44 979.50,445.44 C968.40,445.44 959.87,442.79 952.14,436.93 C945.72,432.06 943.16,431.00 937.82,431.00 C932.07,431.00 926.44,434.46 924.00,439.50 C921.64,444.37 921.54,445.98 923.35,450.28 C927.39,459.90 945.75,470.01 964.54,472.95 C972.99,474.28 991.32,473.52 999.08,471.53 ZM 633.80 470.22 C639.07,467.49 641.20,462.86 640.75,455.12 C640.42,449.26 640.09,448.47 636.71,445.37 C633.61,442.53 632.28,442.00 628.26,442.00 C621.86,441.99 617.29,439.18 616.55,434.80 C616.25,432.98 615.89,402.25 615.75,366.50 C615.52,306.09 615.37,301.27 613.70,298.21 C611.04,293.33 606.56,291.01 599.80,291.00 C592.62,291.00 589.54,292.40 586.73,296.92 L 584.50 300.50 L 584.50 371.00 C584.51,441.10 584.52,441.53 586.69,447.23 C591.88,460.82 601.68,469.50 615.04,472.33 C619.52,473.28 630.23,472.08 633.80,470.22 ZM 1103.65 470.30 C1108.64,467.71 1111.11,464.17 1111.73,458.73 C1112.81,449.11 1108.36,442.98 1099.78,442.28 C1093.02,441.73 1089.24,440.27 1087.71,437.61 C1086.81,436.04 1086.37,418.36 1086.00,368.50 C1085.52,303.78 1085.43,301.38 1083.50,298.10 C1080.11,292.34 1076.72,290.50 1069.50,290.50 C1062.01,290.50 1058.60,292.46 1055.50,298.56 C1053.57,302.36 1053.49,304.77 1053.22,366.99 C1052.95,429.44 1053.01,431.76 1055.04,440.69 C1058.89,457.60 1068.59,468.16 1083.73,471.97 C1089.32,473.37 1099.35,472.53 1103.65,470.30 ZM 230.50 490.52 C200.35,484.92 175.13,461.04 169.53,432.79 C167.56,422.86 167.58,409.95 169.59,400.21 C171.15,392.59 174.66,383.00 175.87,383.00 C176.22,383.01 176.54,387.84 176.60,393.75 C176.70,406.04 178.93,418.34 182.90,428.56 C194.67,458.89 222.97,482.53 253.26,487.34 C262.30,488.77 261.88,489.33 250.50,490.96 C241.80,492.20 239.27,492.15 230.50,490.52 ZM 277.11 402.73 C271.90,377.55 266.08,370.82 245.19,365.88 C240.41,364.74 236.35,363.67 236.17,363.50 C235.99,363.32 238.46,362.66 241.67,362.02 C251.08,360.16 259.57,357.09 263.84,354.00 C269.18,350.14 273.47,341.18 276.20,328.19 L 278.37 317.88 L 280.66 328.09 C283.73,341.79 287.67,350.02 292.99,353.87 C297.29,356.99 305.51,360.08 315.00,362.15 L 320.50 363.35 L 315.50 364.73 C298.76,369.34 296.78,370.16 292.34,374.26 C289.86,376.54 286.94,380.15 285.85,382.29 C283.44,387.02 280.00,400.13 280.00,404.60 C280.00,410.19 278.44,409.19 277.11,402.73 ZM 703.87 443.49 C687.77,438.33 678.12,422.85 679.21,403.95 C680.00,390.23 687.17,378.56 698.41,372.68 C704.08,369.72 705.19,369.50 714.50,369.51 C723.99,369.52 724.83,369.70 730.87,372.96 C738.23,376.94 743.61,383.39 746.77,392.02 C754.10,412.00 746.97,432.84 729.78,441.64 C723.25,444.98 711.21,445.84 703.87,443.49 Z" fill="rgb(252,253,252)"/>
</g>
</svg>